<?xml version="1.0" standalone="no"?>
<!DOCTYPE svg PUBLIC "-//W3C//DTD SVG 20010904//EN"
 "http://www.w3.org/TR/2001/REC-SVG-20010904/DTD/svg10.dtd">
<svg version="1.0" xmlns="http://www.w3.org/2000/svg"
 width="512.000000pt" height="512.000000pt" viewBox="0 0 512.000000 512.000000"
 preserveAspectRatio="xMidYMid meet">

<g transform="translate(0.000000,512.000000) scale(0.100000,-0.100000)"
fill="#000000" stroke="none">
<path d="M1940 5112 c0 -4 7 -29 15 -56 25 -82 19 -208 -14 -338 -37 -140 -63
-212 -186 -503 -177 -421 -219 -557 -219 -725 -1 -228 96 -354 342 -441 50
-17 53 -17 47 -1 -31 73 -38 115 -38 212 1 167 41 299 213 705 159 373 199
491 220 643 27 198 -48 355 -211 442 -65 34 -169 73 -169 62z"/>
<path d="M2765 4360 c10 -44 8 -129 -4 -182 -17 -76 -48 -152 -148 -361 -121
-256 -140 -303 -163 -396 -49 -191 -2 -309 152 -386 39 -19 73 -34 75 -32 2 2
-2 19 -8 37 -18 49 -5 192 24 275 32 90 45 119 160 361 106 222 147 344 147
438 0 113 -62 202 -177 252 -30 13 -56 24 -59 24 -3 0 -3 -13 1 -30z"/>
<path d="M263 2620 c-12 -5 -30 -21 -39 -35 -15 -23 -16 -46 -11 -198 24 -662
219 -1294 545 -1762 169 -244 356 -425 589 -571 l86 -54 721 0 721 0 53 28
c157 83 385 281 527 457 l74 92 99 6 c257 16 526 106 748 253 192 126 394 365
464 546 57 146 65 191 64 343 -1 128 -3 147 -31 226 -100 288 -391 488 -710
489 l-53 0 0 55 c0 70 -20 109 -61 124 -40 14 -3752 15 -3786 1z m706 -554
c22 -22 25 -37 33 -143 18 -256 60 -452 133 -630 39 -92 42 -120 20 -163 -21
-41 -53 -60 -101 -60 -65 0 -94 31 -143 154 -85 215 -134 458 -135 678 -1 131
0 137 23 162 47 50 121 51 170 2z m3297 -72 c72 -19 143 -70 178 -127 41 -66
48 -175 18 -274 -68 -222 -295 -428 -577 -524 -44 -15 -81 -26 -83 -24 -2 2
18 54 44 116 87 212 164 483 204 718 12 69 23 128 26 133 7 11 126 0 190 -18z
m-2969 -1025 c15 -5 58 -40 96 -77 37 -37 104 -92 150 -122 71 -48 84 -61 95
-97 12 -38 12 -47 -5 -80 -22 -47 -79 -78 -124 -68 -91 20 -348 243 -362 314
-12 58 22 114 80 131 38 11 38 11 70 -1z"/>
</g>
</svg>
